<mxfile host="65bd71144e">
    <diagram id="U1vW8HqQiydn51asmg5b" name="第 1 页">
        <mxGraphModel dx="2711" dy="3015" grid="1" gridSize="10" guides="1" tooltips="1" connect="1" arrows="1" fold="1" page="1" pageScale="1" pageWidth="827" pageHeight="1169" math="0" shadow="0">
            <root>
                <mxCell id="0"/>
                <mxCell id="1" parent="0"/>
                <mxCell id="2" value="&lt;div style=&quot;color: rgb(191, 199, 213); background-color: rgb(41, 45, 62); font-family: Consolas, &amp;quot;Courier New&amp;quot;, monospace; font-size: 19.6px; line-height: 26px; white-space: pre;&quot;&gt;&lt;div&gt;&lt;span style=&quot;color: #c792ea;font-style: italic;&quot;&gt;function&lt;/span&gt;&lt;span style=&quot;color: #bfc7d5;&quot;&gt; &lt;/span&gt;&lt;span style=&quot;color: #82aaff;&quot;&gt;Animal&lt;/span&gt;&lt;span style=&quot;color: #d9f5dd;&quot;&gt;(&lt;/span&gt;&lt;span style=&quot;color: #7986e7;font-style: italic;&quot;&gt;name&lt;/span&gt;&lt;span style=&quot;color: #d9f5dd;&quot;&gt;)&lt;/span&gt;&lt;span style=&quot;color: #bfc7d5;&quot;&gt;{&lt;/span&gt;&lt;/div&gt;&lt;div&gt;&lt;span style=&quot;color: #bfc7d5;&quot;&gt;&amp;nbsp; &amp;nbsp; &lt;/span&gt;&lt;span style=&quot;color: #ff5572;font-style: italic;&quot;&gt;this&lt;/span&gt;&lt;span style=&quot;color: #c792ea;&quot;&gt;.&lt;/span&gt;&lt;span style=&quot;color: #89ddff;&quot;&gt;name&lt;/span&gt;&lt;span style=&quot;color: #bfc7d5;&quot;&gt; &lt;/span&gt;&lt;span style=&quot;color: #c792ea;&quot;&gt;=&lt;/span&gt;&lt;span style=&quot;color: #bfc7d5;&quot;&gt; name;&lt;/span&gt;&lt;/div&gt;&lt;div&gt;&lt;span style=&quot;color: #bfc7d5;&quot;&gt;&amp;nbsp; &amp;nbsp; &lt;/span&gt;&lt;span style=&quot;color: #ff5572;font-style: italic;&quot;&gt;this&lt;/span&gt;&lt;span style=&quot;color: #c792ea;&quot;&gt;.&lt;/span&gt;&lt;span style=&quot;color: #82aaff;&quot;&gt;getName&lt;/span&gt;&lt;span style=&quot;color: #bfc7d5;&quot;&gt; &lt;/span&gt;&lt;span style=&quot;color: #c792ea;&quot;&gt;=&lt;/span&gt;&lt;span style=&quot;color: #bfc7d5;&quot;&gt; &lt;/span&gt;&lt;span style=&quot;color: #c792ea;font-style: italic;&quot;&gt;function&lt;/span&gt;&lt;span style=&quot;color: #d9f5dd;&quot;&gt;()&lt;/span&gt;&lt;span style=&quot;color: #bfc7d5;&quot;&gt;{&lt;/span&gt;&lt;/div&gt;&lt;div&gt;&lt;span style=&quot;color: #bfc7d5;&quot;&gt;&amp;nbsp; &amp;nbsp; &amp;nbsp; &amp;nbsp; &lt;/span&gt;&lt;span style=&quot;color: #c792ea;font-style: italic;&quot;&gt;return&lt;/span&gt;&lt;span style=&quot;color: #bfc7d5;&quot;&gt; &lt;/span&gt;&lt;span style=&quot;color: #ff5572;font-style: italic;&quot;&gt;this&lt;/span&gt;&lt;span style=&quot;color: #c792ea;&quot;&gt;.&lt;/span&gt;&lt;span style=&quot;color: #89ddff;&quot;&gt;name&lt;/span&gt;&lt;span style=&quot;color: #bfc7d5;&quot;&gt;;&lt;/span&gt;&lt;/div&gt;&lt;div&gt;&lt;span style=&quot;color: #bfc7d5;&quot;&gt;&amp;nbsp; &amp;nbsp; }&lt;/span&gt;&lt;/div&gt;&lt;div&gt;&lt;span style=&quot;color: #bfc7d5;&quot;&gt;}&lt;/span&gt;&lt;/div&gt;&lt;/div&gt;" style="text;html=1;align=center;verticalAlign=middle;whiteSpace=wrap;rounded=0;" vertex="1" parent="1">
                    <mxGeometry x="-790" y="-2280" width="310" height="70" as="geometry"/>
                </mxCell>
                <mxCell id="4" value="function Animal()" style="swimlane;fontStyle=0;childLayout=stackLayout;horizontal=1;startSize=30;horizontalStack=0;resizeParent=1;resizeParentMax=0;resizeLast=0;collapsible=1;marginBottom=0;whiteSpace=wrap;html=1;" vertex="1" parent="1">
                    <mxGeometry x="-700" y="-2120" width="140" height="60" as="geometry"/>
                </mxCell>
                <mxCell id="5" value="prototype" style="text;strokeColor=none;fillColor=none;align=left;verticalAlign=middle;spacingLeft=4;spacingRight=4;overflow=hidden;points=[[0,0.5],[1,0.5]];portConstraint=eastwest;rotatable=0;whiteSpace=wrap;html=1;" vertex="1" parent="4">
                    <mxGeometry y="30" width="140" height="30" as="geometry"/>
                </mxCell>
                <mxCell id="8" value="Animal的默认原型对象" style="swimlane;fontStyle=0;childLayout=stackLayout;horizontal=1;startSize=30;horizontalStack=0;resizeParent=1;resizeParentMax=0;resizeLast=0;collapsible=1;marginBottom=0;whiteSpace=wrap;html=1;" vertex="1" parent="1">
                    <mxGeometry x="-300" y="-2150" width="140" height="60" as="geometry"/>
                </mxCell>
                <mxCell id="10" value="constructor" style="text;strokeColor=none;fillColor=none;align=left;verticalAlign=middle;spacingLeft=4;spacingRight=4;overflow=hidden;points=[[0,0.5],[1,0.5]];portConstraint=eastwest;rotatable=0;whiteSpace=wrap;html=1;" vertex="1" parent="8">
                    <mxGeometry y="30" width="140" height="30" as="geometry"/>
                </mxCell>
                <mxCell id="12" style="edgeStyle=none;html=1;entryX=0.006;entryY=0.017;entryDx=0;entryDy=0;entryPerimeter=0;" edge="1" parent="1" source="5" target="10">
                    <mxGeometry relative="1" as="geometry"/>
                </mxCell>
                <mxCell id="17" value="&lt;div style=&quot;color: rgb(191, 199, 213); background-color: rgb(41, 45, 62); font-family: Consolas, &amp;quot;Courier New&amp;quot;, monospace; font-size: 19.6px; line-height: 26px; white-space: pre;&quot;&gt;&lt;div&gt;&lt;span style=&quot;color: #c792ea;font-style: italic;&quot;&gt;function&lt;/span&gt;&lt;span style=&quot;color: #bfc7d5;&quot;&gt; &lt;/span&gt;&lt;span style=&quot;color: #82aaff;&quot;&gt;Dog&lt;/span&gt;&lt;span style=&quot;color: #d9f5dd;&quot;&gt;(&lt;/span&gt;&lt;span style=&quot;color: #7986e7;font-style: italic;&quot;&gt;name&lt;/span&gt;&lt;span style=&quot;color: #d9f5dd;&quot;&gt;)&lt;/span&gt;&lt;span style=&quot;color: #bfc7d5;&quot;&gt;{&lt;/span&gt;&lt;/div&gt;&lt;div&gt;&lt;span style=&quot;color: #bfc7d5;&quot;&gt;&amp;nbsp; &amp;nbsp; Animal&lt;/span&gt;&lt;span style=&quot;color: #c792ea;&quot;&gt;.&lt;/span&gt;&lt;span style=&quot;color: #82aaff;&quot;&gt;call&lt;/span&gt;&lt;span style=&quot;color: #bfc7d5;&quot;&gt;(&lt;/span&gt;&lt;span style=&quot;color: #ff5572;font-style: italic;&quot;&gt;this&lt;/span&gt;&lt;span style=&quot;color: #eeffff;&quot;&gt;,&lt;/span&gt;&lt;span style=&quot;color: #bfc7d5;&quot;&gt;name);&lt;/span&gt;&lt;/div&gt;&lt;div&gt;&lt;span style=&quot;color: #bfc7d5;&quot;&gt;}&lt;/span&gt;&lt;/div&gt;&lt;/div&gt;" style="text;html=1;align=center;verticalAlign=middle;whiteSpace=wrap;rounded=0;" vertex="1" parent="1">
                    <mxGeometry x="-750" y="-2020" width="60" height="30" as="geometry"/>
                </mxCell>
                <mxCell id="18" value="function Dog()" style="swimlane;fontStyle=0;childLayout=stackLayout;horizontal=1;startSize=40;horizontalStack=0;resizeParent=1;resizeParentMax=0;resizeLast=0;collapsible=1;marginBottom=0;whiteSpace=wrap;html=1;" vertex="1" parent="1">
                    <mxGeometry x="-700" y="-1950" width="140" height="70" as="geometry"/>
                </mxCell>
                <mxCell id="19" value="prototype" style="text;strokeColor=none;fillColor=none;align=left;verticalAlign=middle;spacingLeft=4;spacingRight=4;overflow=hidden;points=[[0,0.5],[1,0.5]];portConstraint=eastwest;rotatable=0;whiteSpace=wrap;html=1;" vertex="1" parent="18">
                    <mxGeometry y="40" width="140" height="30" as="geometry"/>
                </mxCell>
                <mxCell id="22" value="new Animal()" style="swimlane;fontStyle=0;childLayout=stackLayout;horizontal=1;startSize=30;horizontalStack=0;resizeParent=1;resizeParentMax=0;resizeLast=0;collapsible=1;marginBottom=0;whiteSpace=wrap;html=1;" vertex="1" parent="1">
                    <mxGeometry x="-483" y="-2020" width="140" height="120" as="geometry"/>
                </mxCell>
                <mxCell id="26" style="edgeStyle=none;html=1;" edge="1" parent="22" source="23">
                    <mxGeometry relative="1" as="geometry">
                        <mxPoint x="183" y="-100" as="targetPoint"/>
                    </mxGeometry>
                </mxCell>
                <mxCell id="23" value="__proto__" style="text;strokeColor=none;fillColor=none;align=left;verticalAlign=middle;spacingLeft=4;spacingRight=4;overflow=hidden;points=[[0,0.5],[1,0.5]];portConstraint=eastwest;rotatable=0;whiteSpace=wrap;html=1;" vertex="1" parent="22">
                    <mxGeometry y="30" width="140" height="30" as="geometry"/>
                </mxCell>
                <mxCell id="24" value="name:&lt;span style=&quot;white-space: pre;&quot;&gt;&#x9;&lt;/span&gt;undefined&amp;nbsp;&amp;nbsp;&lt;span style=&quot;white-space: pre;&quot;&gt;&#x9;&lt;/span&gt;" style="text;strokeColor=none;fillColor=none;align=left;verticalAlign=middle;spacingLeft=4;spacingRight=4;overflow=hidden;points=[[0,0.5],[1,0.5]];portConstraint=eastwest;rotatable=0;whiteSpace=wrap;html=1;" vertex="1" parent="22">
                    <mxGeometry y="60" width="140" height="30" as="geometry"/>
                </mxCell>
                <mxCell id="25" value="getName: 0x100" style="text;strokeColor=none;fillColor=none;align=left;verticalAlign=middle;spacingLeft=4;spacingRight=4;overflow=hidden;points=[[0,0.5],[1,0.5]];portConstraint=eastwest;rotatable=0;whiteSpace=wrap;html=1;" vertex="1" parent="22">
                    <mxGeometry y="90" width="140" height="30" as="geometry"/>
                </mxCell>
                <mxCell id="27" value="" style="rounded=0;whiteSpace=wrap;html=1;" vertex="1" parent="1">
                    <mxGeometry x="-240" y="-2040" width="120" height="290" as="geometry"/>
                </mxCell>
                <mxCell id="28" value="堆内存" style="text;html=1;align=center;verticalAlign=middle;whiteSpace=wrap;rounded=0;" vertex="1" parent="1">
                    <mxGeometry x="-230" y="-2070" width="60" height="30" as="geometry"/>
                </mxCell>
                <mxCell id="29" value="0x100" style="text;html=1;align=center;verticalAlign=middle;whiteSpace=wrap;rounded=0;" vertex="1" parent="1">
                    <mxGeometry x="-230" y="-1830" width="40" height="20" as="geometry"/>
                </mxCell>
                <mxCell id="31" value="function(){&lt;div&gt;return this.name&lt;/div&gt;&lt;div&gt;}&lt;/div&gt;" style="rounded=0;whiteSpace=wrap;html=1;align=left;" vertex="1" parent="1">
                    <mxGeometry x="-240" y="-1810" width="100" height="40" as="geometry"/>
                </mxCell>
                <mxCell id="32" style="edgeStyle=none;html=1;entryX=0;entryY=0;entryDx=0;entryDy=0;exitX=0.555;exitY=0.906;exitDx=0;exitDy=0;exitPerimeter=0;" edge="1" parent="1" source="25" target="31">
                    <mxGeometry relative="1" as="geometry"/>
                </mxCell>
                <mxCell id="33" style="edgeStyle=none;html=1;exitX=1;exitY=0.5;exitDx=0;exitDy=0;entryX=0.007;entryY=0.164;entryDx=0;entryDy=0;entryPerimeter=0;" edge="1" parent="1" source="19" target="22">
                    <mxGeometry relative="1" as="geometry"/>
                </mxCell>
                <mxCell id="34" value="&lt;div style=&quot;color: rgb(191, 199, 213); background-color: rgb(41, 45, 62); font-family: Consolas, &amp;quot;Courier New&amp;quot;, monospace; font-size: 19.6px; line-height: 26px; white-space: pre;&quot;&gt;&lt;div&gt;&lt;span style=&quot;color: #c792ea;font-style: italic;&quot;&gt;const&lt;/span&gt;&lt;span style=&quot;color: #bfc7d5;&quot;&gt; &lt;/span&gt;&lt;span style=&quot;color: #82aaff;&quot;&gt;dog1&lt;/span&gt;&lt;span style=&quot;color: #bfc7d5;&quot;&gt; &lt;/span&gt;&lt;span style=&quot;color: #c792ea;&quot;&gt;=&lt;/span&gt;&lt;span style=&quot;color: #bfc7d5;&quot;&gt; &lt;/span&gt;&lt;span style=&quot;color: #89ddff;font-style: italic;&quot;&gt;new&lt;/span&gt;&lt;span style=&quot;color: #bfc7d5;&quot;&gt; &lt;/span&gt;&lt;span style=&quot;color: #82aaff;&quot;&gt;Dog&lt;/span&gt;&lt;span style=&quot;color: #bfc7d5;&quot;&gt;(&lt;/span&gt;&lt;span style=&quot;color: #d9f5dd;&quot;&gt;&#39;&lt;/span&gt;&lt;span style=&quot;color: #c3e88d;font-style: italic;&quot;&gt;aaa&lt;/span&gt;&lt;span style=&quot;color: #d9f5dd;&quot;&gt;&#39;&lt;/span&gt;&lt;span style=&quot;color: #bfc7d5;&quot;&gt;);&lt;/span&gt;&lt;/div&gt;&lt;div&gt;&lt;span style=&quot;color: #bfc7d5;&quot;&gt;console&lt;/span&gt;&lt;span style=&quot;color: #c792ea;&quot;&gt;.&lt;/span&gt;&lt;span style=&quot;color: #82aaff;&quot;&gt;log&lt;/span&gt;&lt;span style=&quot;color: #bfc7d5;&quot;&gt;(dog1&lt;/span&gt;&lt;span style=&quot;color: #c792ea;&quot;&gt;.&lt;/span&gt;&lt;span style=&quot;color: #82aaff;&quot;&gt;getName&lt;/span&gt;&lt;span style=&quot;color: #bfc7d5;&quot;&gt;());&lt;/span&gt;&lt;/div&gt;&lt;br&gt;&lt;div&gt;&lt;span style=&quot;color: #c792ea;font-style: italic;&quot;&gt;const&lt;/span&gt;&lt;span style=&quot;color: #bfc7d5;&quot;&gt; &lt;/span&gt;&lt;span style=&quot;color: #82aaff;&quot;&gt;dog2&lt;/span&gt;&lt;span style=&quot;color: #bfc7d5;&quot;&gt; &lt;/span&gt;&lt;span style=&quot;color: #c792ea;&quot;&gt;=&lt;/span&gt;&lt;span style=&quot;color: #bfc7d5;&quot;&gt; &lt;/span&gt;&lt;span style=&quot;color: #89ddff;font-style: italic;&quot;&gt;new&lt;/span&gt;&lt;span style=&quot;color: #bfc7d5;&quot;&gt; &lt;/span&gt;&lt;span style=&quot;color: #82aaff;&quot;&gt;Dog&lt;/span&gt;&lt;span style=&quot;color: #bfc7d5;&quot;&gt;(&lt;/span&gt;&lt;span style=&quot;color: #d9f5dd;&quot;&gt;&#39;&lt;/span&gt;&lt;span style=&quot;color: #c3e88d;font-style: italic;&quot;&gt;bb&lt;/span&gt;&lt;span style=&quot;color: #d9f5dd;&quot;&gt;&#39;&lt;/span&gt;&lt;span style=&quot;color: #bfc7d5;&quot;&gt;);&lt;/span&gt;&lt;/div&gt;&lt;div&gt;&lt;span style=&quot;color: #bfc7d5;&quot;&gt;console&lt;/span&gt;&lt;span style=&quot;color: #c792ea;&quot;&gt;.&lt;/span&gt;&lt;span style=&quot;color: #82aaff;&quot;&gt;log&lt;/span&gt;&lt;span style=&quot;color: #bfc7d5;&quot;&gt;(dog2&lt;/span&gt;&lt;span style=&quot;color: #c792ea;&quot;&gt;.&lt;/span&gt;&lt;span style=&quot;color: #82aaff;&quot;&gt;getName&lt;/span&gt;&lt;span style=&quot;color: #bfc7d5;&quot;&gt;());&lt;/span&gt;&lt;/div&gt;&lt;br&gt;&lt;div&gt;&lt;span style=&quot;color: #c792ea;font-style: italic;&quot;&gt;const&lt;/span&gt;&lt;span style=&quot;color: #bfc7d5;&quot;&gt; &lt;/span&gt;&lt;span style=&quot;color: #82aaff;&quot;&gt;dog3&lt;/span&gt;&lt;span style=&quot;color: #bfc7d5;&quot;&gt; &lt;/span&gt;&lt;span style=&quot;color: #c792ea;&quot;&gt;=&lt;/span&gt;&lt;span style=&quot;color: #bfc7d5;&quot;&gt; &lt;/span&gt;&lt;span style=&quot;color: #89ddff;font-style: italic;&quot;&gt;new&lt;/span&gt;&lt;span style=&quot;color: #bfc7d5;&quot;&gt; &lt;/span&gt;&lt;span style=&quot;color: #82aaff;&quot;&gt;Dog&lt;/span&gt;&lt;span style=&quot;color: #bfc7d5;&quot;&gt;(&lt;/span&gt;&lt;span style=&quot;color: #d9f5dd;&quot;&gt;&#39;&lt;/span&gt;&lt;span style=&quot;color: #c3e88d;font-style: italic;&quot;&gt;c&lt;/span&gt;&lt;span style=&quot;color: #d9f5dd;&quot;&gt;&#39;&lt;/span&gt;&lt;span style=&quot;color: #bfc7d5;&quot;&gt;);&lt;/span&gt;&lt;/div&gt;&lt;div&gt;&lt;span style=&quot;color: #bfc7d5;&quot;&gt;console&lt;/span&gt;&lt;span style=&quot;color: #c792ea;&quot;&gt;.&lt;/span&gt;&lt;span style=&quot;color: #82aaff;&quot;&gt;log&lt;/span&gt;&lt;span style=&quot;color: #bfc7d5;&quot;&gt;(dog3&lt;/span&gt;&lt;span style=&quot;color: #c792ea;&quot;&gt;.&lt;/span&gt;&lt;span style=&quot;color: #82aaff;&quot;&gt;getName&lt;/span&gt;&lt;span style=&quot;color: #bfc7d5;&quot;&gt;())&lt;/span&gt;&lt;/div&gt;&lt;/div&gt;" style="text;html=1;align=center;verticalAlign=middle;whiteSpace=wrap;rounded=0;" vertex="1" parent="1">
                    <mxGeometry x="-950" y="-1850" width="60" height="80" as="geometry"/>
                </mxCell>
                <mxCell id="35" value="dog1" style="swimlane;fontStyle=0;childLayout=stackLayout;horizontal=1;startSize=30;horizontalStack=0;resizeParent=1;resizeParentMax=0;resizeLast=0;collapsible=1;marginBottom=0;whiteSpace=wrap;html=1;" vertex="1" parent="1">
                    <mxGeometry x="-620" y="-1850" width="130" height="120" as="geometry"/>
                </mxCell>
                <mxCell id="36" value="__proto__" style="text;strokeColor=none;fillColor=none;align=left;verticalAlign=middle;spacingLeft=4;spacingRight=4;overflow=hidden;points=[[0,0.5],[1,0.5]];portConstraint=eastwest;rotatable=0;whiteSpace=wrap;html=1;" vertex="1" parent="35">
                    <mxGeometry y="30" width="130" height="30" as="geometry"/>
                </mxCell>
                <mxCell id="37" value="name: aaa" style="text;strokeColor=none;fillColor=none;align=left;verticalAlign=middle;spacingLeft=4;spacingRight=4;overflow=hidden;points=[[0,0.5],[1,0.5]];portConstraint=eastwest;rotatable=0;whiteSpace=wrap;html=1;" vertex="1" parent="35">
                    <mxGeometry y="60" width="130" height="30" as="geometry"/>
                </mxCell>
                <mxCell id="38" value="getName :0x101" style="text;strokeColor=none;fillColor=none;align=left;verticalAlign=middle;spacingLeft=4;spacingRight=4;overflow=hidden;points=[[0,0.5],[1,0.5]];portConstraint=eastwest;rotatable=0;whiteSpace=wrap;html=1;" vertex="1" parent="35">
                    <mxGeometry y="90" width="130" height="30" as="geometry"/>
                </mxCell>
                <mxCell id="39" style="edgeStyle=none;html=1;entryX=0.007;entryY=0.164;entryDx=0;entryDy=0;entryPerimeter=0;" edge="1" parent="1" source="36" target="22">
                    <mxGeometry relative="1" as="geometry"/>
                </mxCell>
                <mxCell id="40" value="function(){&lt;div&gt;return this.name&lt;/div&gt;&lt;div&gt;}&lt;/div&gt;" style="rounded=0;whiteSpace=wrap;html=1;align=left;" vertex="1" parent="1">
                    <mxGeometry x="-240" y="-1870" width="100" height="40" as="geometry"/>
                </mxCell>
                <mxCell id="41" value="0x101" style="text;html=1;align=center;verticalAlign=middle;whiteSpace=wrap;rounded=0;" vertex="1" parent="1">
                    <mxGeometry x="-250" y="-1900" width="60" height="30" as="geometry"/>
                </mxCell>
                <mxCell id="42" style="edgeStyle=none;html=1;entryX=0;entryY=0.25;entryDx=0;entryDy=0;" edge="1" parent="1" source="38" target="40">
                    <mxGeometry relative="1" as="geometry"/>
                </mxCell>
                <mxCell id="43" value="dog2" style="swimlane;fontStyle=0;childLayout=stackLayout;horizontal=1;startSize=30;horizontalStack=0;resizeParent=1;resizeParentMax=0;resizeLast=0;collapsible=1;marginBottom=0;whiteSpace=wrap;html=1;" vertex="1" parent="1">
                    <mxGeometry x="-460" y="-1770" width="130" height="120" as="geometry"/>
                </mxCell>
                <mxCell id="47" style="edgeStyle=none;html=1;" edge="1" parent="43" source="44">
                    <mxGeometry relative="1" as="geometry">
                        <mxPoint x="-30" y="-230" as="targetPoint"/>
                    </mxGeometry>
                </mxCell>
                <mxCell id="44" value="__proto__" style="text;strokeColor=none;fillColor=none;align=left;verticalAlign=middle;spacingLeft=4;spacingRight=4;overflow=hidden;points=[[0,0.5],[1,0.5]];portConstraint=eastwest;rotatable=0;whiteSpace=wrap;html=1;" vertex="1" parent="43">
                    <mxGeometry y="30" width="130" height="30" as="geometry"/>
                </mxCell>
                <mxCell id="45" value="name: bbb" style="text;strokeColor=none;fillColor=none;align=left;verticalAlign=middle;spacingLeft=4;spacingRight=4;overflow=hidden;points=[[0,0.5],[1,0.5]];portConstraint=eastwest;rotatable=0;whiteSpace=wrap;html=1;" vertex="1" parent="43">
                    <mxGeometry y="60" width="130" height="30" as="geometry"/>
                </mxCell>
                <mxCell id="46" value="getName :0x102" style="text;strokeColor=none;fillColor=none;align=left;verticalAlign=middle;spacingLeft=4;spacingRight=4;overflow=hidden;points=[[0,0.5],[1,0.5]];portConstraint=eastwest;rotatable=0;whiteSpace=wrap;html=1;" vertex="1" parent="43">
                    <mxGeometry y="90" width="130" height="30" as="geometry"/>
                </mxCell>
                <mxCell id="48" value="function(){&lt;div&gt;return this.name&lt;/div&gt;&lt;div&gt;}&lt;/div&gt;" style="rounded=0;whiteSpace=wrap;html=1;align=left;" vertex="1" parent="1">
                    <mxGeometry x="-240" y="-1935" width="100" height="40" as="geometry"/>
                </mxCell>
                <mxCell id="49" value="0x102" style="text;html=1;align=center;verticalAlign=middle;whiteSpace=wrap;rounded=0;" vertex="1" parent="1">
                    <mxGeometry x="-240" y="-1965" width="60" height="30" as="geometry"/>
                </mxCell>
                <mxCell id="50" style="edgeStyle=none;html=1;entryX=0;entryY=1;entryDx=0;entryDy=0;" edge="1" parent="1" source="46" target="49">
                    <mxGeometry relative="1" as="geometry"/>
                </mxCell>
            </root>
        </mxGraphModel>
    </diagram>
</mxfile>